<svg width="115" height="12" viewBox="0 0 115 12" version="1.1" xmlns="http://www.w3.org/2000/svg"><path d="M4.4 12A5 5 0 010 9.7l1.6-1.5c.7.9 1.7 1.4 2.8 1.4 1.3 0 1.9-.4 1.9-1.3 0-.7-.4-1-2.4-1.6C1.9 6.3.5 5.7.5 3.4.5 1.3 2.3 0 4.5 0c1.5 0 3 .6 4 1.8L6.8 3.4a3.3 3.3 0 00-2.5-1.2c-1.2 0-1.6.6-1.6 1 0 .8.5 1 2.2 1.5 1.7.4 3.7 1 3.7 3.5 0 2.3-1.3 3.7-4.3 3.7zm11.2 0c-2.9 0-4.9-2.3-4.9-6 0-3.8 2-6 4.9-6 2.9 0 4.8 2.2 4.8 6 0 3.7-2 6-4.8 6zm0-9.7C14 2.3 13 3.6 13 5.9c0 2.4 1 3.7 2.6 3.7s2.6-1.3 2.6-3.6c0-2.4-1.1-3.7-2.6-3.7zm12 9.6c-2.7 0-4.4-1.9-4.4-5.2V.2h2.2v6.4c0 1.9.8 3 2.2 3 1.4 0 2.3-1 2.3-3V.3H32v6.4c0 3.4-1.7 5.3-4.5 5.3zm14.8-.1l-4-6.4-.8-1.3v7.6h-2.1V.3h2l4 6 .7 1.4V.1h2.2v11.7h-2zm8.7 0h-3.3V.2h3.5c3.1 0 5.4 1.5 5.4 5.8 0 4-2.8 5.8-5.6 5.8zm-1-9.4v7.1h1c2.3 0 3.4-1.4 3.4-3.5 0-2.4-1-3.6-3.3-3.6H50zm16.2 1.1a2 2 0 00-2-1.2c-1.7 0-2.6 1.5-2.6 3.7 0 2.1 1 3.6 2.6 3.6 1 0 1.6-.4 2.1-1.4l1.9 1.1a4.2 4.2 0 01-4 2.6c-3 0-4.9-2.3-4.9-6 0-3.5 2-6 5-6 1.7 0 3.3 1 4 2.7l-2.1 1zm5.2 8.3V.2h2.2v9.3h5.5v2.3h-7.7zm13.7.1c-2.9 0-4.9-2.2-4.9-6 0-3.7 2-6 5-6C88 0 90 2.3 90 6c0 3.8-2 6-4.8 6zm0-9.6c-1.6 0-2.6 1.3-2.6 3.6 0 2.4 1 3.7 2.6 3.7s2.6-1.3 2.6-3.6c0-2.4-1.1-3.7-2.6-3.7zm12 9.6c-2.6 0-4.4-1.9-4.4-5.2V.2H95v6.4c0 1.9.8 3 2.2 3 1.4 0 2.3-1 2.3-3V.3h2.2v6.4c0 3.4-1.7 5.3-4.5 5.3zm11.3 0h-3.3V.1h3.4c3.2 0 5.5 1.6 5.5 5.8 0 4.1-2.8 5.8-5.6 5.8zm-1-9.4v7h1c2.3 0 3.3-1.4 3.3-3.5 0-2.4-1-3.5-3.2-3.5h-1.2z" fill="#F50" fill-rule="evenodd"/></svg>